<svg width="966" height="264" viewBox="0 0 966 264" fill="none" xmlns="http://www.w3.org/2000/svg">
<rect width="966" height="264" rx="75" fill="#030F21"/>
<path d="M481.085 52.4545V99H472.653V52.4545H481.085ZM498.08 78.5455V99H489.852V64.0909H497.716V70.0227H498.125C498.928 68.0682 500.208 66.5152 501.966 65.3636C503.739 64.2121 505.928 63.6364 508.534 63.6364C510.943 63.6364 513.042 64.1515 514.83 65.1818C516.633 66.2121 518.027 67.7045 519.011 69.6591C520.011 71.6136 520.504 73.9848 520.489 76.7727V99H512.261V78.0455C512.261 75.7121 511.655 73.8864 510.443 72.5682C509.246 71.25 507.587 70.5909 505.466 70.5909C504.027 70.5909 502.746 70.9091 501.625 71.5455C500.519 72.1667 499.648 73.0682 499.011 74.25C498.39 75.4318 498.08 76.8636 498.08 78.5455ZM556.443 73.3182L548.943 74.1364C548.731 73.3788 548.36 72.6667 547.83 72C547.314 71.3333 546.617 70.7955 545.739 70.3864C544.86 69.9773 543.784 69.7727 542.511 69.7727C540.799 69.7727 539.36 70.1439 538.193 70.8864C537.042 71.6288 536.473 72.5909 536.489 73.7727C536.473 74.7879 536.845 75.6136 537.602 76.25C538.375 76.8864 539.648 77.4091 541.42 77.8182L547.375 79.0909C550.678 79.803 553.133 80.9318 554.739 82.4773C556.36 84.0227 557.178 86.0455 557.193 88.5455C557.178 90.7424 556.534 92.6818 555.261 94.3636C554.004 96.0303 552.254 97.3333 550.011 98.2727C547.769 99.2121 545.193 99.6818 542.284 99.6818C538.011 99.6818 534.572 98.7879 531.966 97C529.36 95.197 527.807 92.6894 527.307 89.4773L535.33 88.7045C535.693 90.2803 536.466 91.4697 537.648 92.2727C538.83 93.0758 540.367 93.4773 542.261 93.4773C544.216 93.4773 545.784 93.0758 546.966 92.2727C548.163 91.4697 548.761 90.4773 548.761 89.2955C548.761 88.2955 548.375 87.4697 547.602 86.8182C546.845 86.1667 545.663 85.6667 544.057 85.3182L538.102 84.0682C534.754 83.3712 532.277 82.197 530.67 80.5455C529.064 78.8788 528.269 76.7727 528.284 74.2273C528.269 72.0758 528.852 70.2121 530.034 68.6364C531.231 67.0455 532.89 65.8182 535.011 64.9545C537.148 64.0758 539.61 63.6364 542.398 63.6364C546.489 63.6364 549.708 64.5076 552.057 66.25C554.42 67.9924 555.883 70.3485 556.443 73.3182ZM581.409 64.0909V70.4545H561.341V64.0909H581.409ZM566.295 55.7273H574.523V88.5C574.523 89.6061 574.689 90.4545 575.023 91.0455C575.371 91.6212 575.826 92.0152 576.386 92.2273C576.947 92.4394 577.568 92.5455 578.25 92.5455C578.765 92.5455 579.235 92.5076 579.659 92.4318C580.098 92.3561 580.432 92.2879 580.659 92.2273L582.045 98.6591C581.606 98.8106 580.977 98.9773 580.159 99.1591C579.356 99.3409 578.371 99.447 577.205 99.4773C575.144 99.5379 573.288 99.2273 571.636 98.5455C569.985 97.8485 568.674 96.7727 567.705 95.3182C566.75 93.8636 566.28 92.0455 566.295 89.8636V55.7273ZM598.335 99.7045C596.123 99.7045 594.131 99.3106 592.358 98.5227C590.6 97.7197 589.206 96.5379 588.176 94.9773C587.161 93.4167 586.653 91.4924 586.653 89.2045C586.653 87.2348 587.017 85.6061 587.744 84.3182C588.472 83.0303 589.464 82 590.722 81.2273C591.979 80.4545 593.396 79.8712 594.972 79.4773C596.563 79.0682 598.206 78.7727 599.903 78.5909C601.949 78.3788 603.608 78.1894 604.881 78.0227C606.153 77.8409 607.078 77.5682 607.653 77.2045C608.244 76.8258 608.54 76.2424 608.54 75.4545V75.3182C608.54 73.6061 608.032 72.2803 607.017 71.3409C606.002 70.4015 604.54 69.9318 602.631 69.9318C600.616 69.9318 599.017 70.3712 597.835 71.25C596.669 72.1288 595.881 73.1667 595.472 74.3636L587.79 73.2727C588.396 71.1515 589.396 69.3788 590.79 67.9545C592.184 66.5151 593.888 65.4394 595.903 64.7273C597.919 64 600.146 63.6364 602.585 63.6364C604.267 63.6364 605.941 63.8333 607.608 64.2273C609.275 64.6212 610.797 65.2727 612.176 66.1818C613.555 67.0758 614.661 68.2955 615.494 69.8409C616.343 71.3864 616.767 73.3182 616.767 75.6364V99H608.858V94.2045H608.585C608.085 95.1742 607.381 96.0833 606.472 96.9318C605.578 97.7652 604.449 98.4394 603.085 98.9545C601.737 99.4545 600.153 99.7045 598.335 99.7045ZM600.472 93.6591C602.123 93.6591 603.555 93.3333 604.767 92.6818C605.979 92.0152 606.911 91.1364 607.562 90.0455C608.229 88.9545 608.562 87.7652 608.562 86.4773V82.3636C608.305 82.5758 607.866 82.7727 607.244 82.9545C606.638 83.1364 605.956 83.2955 605.199 83.4318C604.441 83.5682 603.691 83.6894 602.949 83.7955C602.206 83.9015 601.563 83.9924 601.017 84.0682C599.79 84.2348 598.691 84.5076 597.722 84.8864C596.752 85.2652 595.987 85.7955 595.426 86.4773C594.866 87.1439 594.585 88.0076 594.585 89.0682C594.585 90.5833 595.138 91.7273 596.244 92.5C597.35 93.2727 598.759 93.6591 600.472 93.6591ZM633.267 52.4545V99H625.04V52.4545H633.267ZM649.955 52.4545V99H641.727V52.4545H649.955ZM691.722 64.0909V70.4545H671.653V64.0909H691.722ZM676.608 55.7273H684.835V88.5C684.835 89.6061 685.002 90.4545 685.335 91.0455C685.684 91.6212 686.138 92.0152 686.699 92.2273C687.259 92.4394 687.881 92.5455 688.562 92.5455C689.078 92.5455 689.547 92.5076 689.972 92.4318C690.411 92.3561 690.744 92.2879 690.972 92.2273L692.358 98.6591C691.919 98.8106 691.29 98.9773 690.472 99.1591C689.669 99.3409 688.684 99.447 687.517 99.4773C685.456 99.5379 683.6 99.2273 681.949 98.5455C680.297 97.8485 678.987 96.7727 678.017 95.3182C677.063 93.8636 676.593 92.0455 676.608 89.8636V55.7273ZM713.455 99.6818C710.045 99.6818 707.091 98.9318 704.591 97.4318C702.091 95.9318 700.152 93.8333 698.773 91.1364C697.409 88.4394 696.727 85.2879 696.727 81.6818C696.727 78.0758 697.409 74.9167 698.773 72.2045C700.152 69.4924 702.091 67.3864 704.591 65.8864C707.091 64.3864 710.045 63.6364 713.455 63.6364C716.864 63.6364 719.818 64.3864 722.318 65.8864C724.818 67.3864 726.75 69.4924 728.114 72.2045C729.492 74.9167 730.182 78.0758 730.182 81.6818C730.182 85.2879 729.492 88.4394 728.114 91.1364C726.75 93.8333 724.818 95.9318 722.318 97.4318C719.818 98.9318 716.864 99.6818 713.455 99.6818ZM713.5 93.0909C715.348 93.0909 716.894 92.5833 718.136 91.5682C719.379 90.5379 720.303 89.1591 720.909 87.4318C721.53 85.7045 721.841 83.7803 721.841 81.6591C721.841 79.5227 721.53 77.5909 720.909 75.8636C720.303 74.1212 719.379 72.7348 718.136 71.7045C716.894 70.6742 715.348 70.1591 713.5 70.1591C711.606 70.1591 710.03 70.6742 708.773 71.7045C707.53 72.7348 706.598 74.1212 705.977 75.8636C705.371 77.5909 705.068 79.5227 705.068 81.6591C705.068 83.7803 705.371 85.7045 705.977 87.4318C706.598 89.1591 707.53 90.5379 708.773 91.5682C710.03 92.5833 711.606 93.0909 713.5 93.0909Z" fill="white"/>
<path d="M345.583 201V124.636H359.417V156.964H394.802V124.636H408.673V201H394.802V168.56H359.417V201H345.583ZM423.121 201V143.727H436.619V201H423.121ZM429.908 135.599C427.77 135.599 425.93 134.89 424.389 133.473C422.848 132.032 422.077 130.304 422.077 128.29C422.077 126.252 422.848 124.524 424.389 123.108C425.93 121.666 427.77 120.945 429.908 120.945C432.07 120.945 433.91 121.666 435.426 123.108C436.967 124.524 437.738 126.252 437.738 128.29C437.738 130.304 436.967 132.032 435.426 133.473C433.91 134.89 432.07 135.599 429.908 135.599ZM462.804 183.028L462.767 166.733H464.929L485.512 143.727H501.284L475.966 171.916H473.17L462.804 183.028ZM450.499 201V124.636H463.997V201H450.499ZM486.444 201L467.8 174.936L476.898 165.428L502.589 201H486.444ZM522.584 183.028L522.547 166.733H524.71L545.292 143.727H561.064L535.747 171.916H532.95L522.584 183.028ZM510.28 201V124.636H523.777V201H510.28ZM546.224 201L527.581 174.936L536.679 165.428L562.369 201H546.224ZM586.541 202.156C582.911 202.156 579.643 201.51 576.734 200.217C573.851 198.9 571.564 196.961 569.873 194.4C568.208 191.84 567.375 188.683 567.375 184.929C567.375 181.698 567.972 179.026 569.165 176.913C570.358 174.8 571.986 173.109 574.05 171.842C576.113 170.574 578.437 169.617 581.022 168.971C583.632 168.299 586.329 167.815 589.114 167.516C592.469 167.168 595.191 166.858 597.279 166.584C599.367 166.286 600.884 165.838 601.828 165.242C602.798 164.62 603.283 163.663 603.283 162.371V162.147C603.283 159.338 602.45 157.163 600.784 155.622C599.119 154.081 596.72 153.31 593.588 153.31C590.282 153.31 587.659 154.031 585.72 155.473C583.806 156.914 582.514 158.617 581.843 160.581L569.24 158.791C570.234 155.311 571.875 152.403 574.161 150.066C576.448 147.705 579.245 145.94 582.551 144.771C585.857 143.578 589.511 142.982 593.513 142.982C596.273 142.982 599.019 143.305 601.754 143.951C604.488 144.597 606.986 145.666 609.248 147.158C611.511 148.624 613.325 150.625 614.692 153.161C616.084 155.696 616.78 158.866 616.78 162.669V201H603.805V193.132H603.357C602.537 194.723 601.381 196.215 599.889 197.607C598.423 198.974 596.571 200.08 594.334 200.925C592.121 201.746 589.524 202.156 586.541 202.156ZM590.046 192.238C592.755 192.238 595.104 191.703 597.093 190.634C599.082 189.54 600.61 188.099 601.679 186.309C602.773 184.519 603.32 182.568 603.32 180.455V173.706C602.897 174.054 602.176 174.377 601.157 174.675C600.163 174.974 599.044 175.235 597.801 175.458C596.558 175.682 595.328 175.881 594.11 176.055C592.892 176.229 591.835 176.378 590.941 176.502C588.927 176.776 587.125 177.223 585.534 177.845C583.943 178.466 582.688 179.336 581.768 180.455C580.848 181.549 580.388 182.966 580.388 184.706C580.388 187.191 581.296 189.068 583.11 190.336C584.925 191.604 587.237 192.238 590.046 192.238ZM630.949 201V124.636H644.783V156.964H680.168V124.636H694.039V201H680.168V168.56H644.783V201H630.949ZM733.47 202.119C727.877 202.119 723.03 200.888 718.928 198.427C714.826 195.966 711.645 192.523 709.383 188.099C707.145 183.674 706.027 178.504 706.027 172.587C706.027 166.671 707.145 161.488 709.383 157.039C711.645 152.589 714.826 149.134 718.928 146.673C723.03 144.212 727.877 142.982 733.47 142.982C739.063 142.982 743.91 144.212 748.012 146.673C752.113 149.134 755.283 152.589 757.52 157.039C759.782 161.488 760.913 166.671 760.913 172.587C760.913 178.504 759.782 183.674 757.52 188.099C755.283 192.523 752.113 195.966 748.012 198.427C743.91 200.888 739.063 202.119 733.47 202.119ZM733.544 191.305C736.577 191.305 739.113 190.473 741.151 188.807C743.189 187.117 744.706 184.855 745.7 182.021C746.719 179.187 747.229 176.03 747.229 172.55C747.229 169.045 746.719 165.876 745.7 163.042C744.706 160.183 743.189 157.909 741.151 156.218C739.113 154.528 736.577 153.683 733.544 153.683C730.437 153.683 727.852 154.528 725.789 156.218C723.75 157.909 722.222 160.183 721.202 163.042C720.208 165.876 719.711 169.045 719.711 172.55C719.711 176.03 720.208 179.187 721.202 182.021C722.222 184.855 723.75 187.117 725.789 188.807C727.852 190.473 730.437 191.305 733.544 191.305ZM817.636 158.866L805.331 160.208C804.983 158.965 804.374 157.797 803.504 156.703C802.659 155.609 801.515 154.727 800.074 154.056C798.632 153.385 796.867 153.049 794.779 153.049C791.97 153.049 789.608 153.658 787.694 154.876C785.805 156.094 784.873 157.673 784.898 159.612C784.873 161.277 785.482 162.632 786.725 163.676C787.993 164.72 790.081 165.577 792.989 166.249L802.758 168.337C808.177 169.505 812.204 171.357 814.839 173.892C817.499 176.428 818.841 179.746 818.866 183.848C818.841 187.452 817.785 190.634 815.697 193.393C813.634 196.128 810.763 198.266 807.084 199.807C803.405 201.348 799.179 202.119 794.406 202.119C787.396 202.119 781.753 200.652 777.478 197.719C773.202 194.761 770.654 190.647 769.834 185.377L782.996 184.109C783.593 186.694 784.861 188.646 786.799 189.963C788.738 191.281 791.261 191.939 794.369 191.939C797.575 191.939 800.148 191.281 802.087 189.963C804.051 188.646 805.033 187.017 805.033 185.078C805.033 183.438 804.399 182.083 803.131 181.014C801.888 179.945 799.949 179.125 797.314 178.553L787.545 176.502C782.052 175.359 777.987 173.433 775.352 170.723C772.717 167.989 771.412 164.533 771.437 160.357C771.412 156.827 772.369 153.77 774.308 151.185C776.272 148.575 778.994 146.561 782.474 145.144C785.979 143.702 790.019 142.982 794.592 142.982C801.304 142.982 806.586 144.411 810.439 147.27C814.317 150.128 816.716 153.994 817.636 158.866ZM858.595 143.727V154.168H825.671V143.727H858.595ZM833.8 130.006H847.298V183.773C847.298 185.588 847.571 186.98 848.118 187.95C848.69 188.894 849.435 189.54 850.355 189.888C851.275 190.237 852.294 190.411 853.413 190.411C854.258 190.411 855.028 190.348 855.724 190.224C856.445 190.1 856.992 189.988 857.365 189.888L859.64 200.441C858.919 200.689 857.887 200.963 856.545 201.261C855.227 201.559 853.611 201.733 851.697 201.783C848.317 201.882 845.272 201.373 842.562 200.254C839.853 199.111 837.702 197.346 836.111 194.96C834.545 192.573 833.775 189.59 833.8 186.011V130.006Z" fill="white"/>
<path fill-rule="evenodd" clip-rule="evenodd" d="M195.81 186.305C165.7 186.305 141.291 161.896 141.291 131.786C141.291 109.674 154.455 90.6366 173.373 82.0834C170.277 88.9269 168.55 96.5269 168.55 104.527C168.55 134.636 192.959 159.045 223.069 159.045C231.069 159.045 238.669 157.318 245.512 154.223C236.959 173.141 217.922 186.305 195.81 186.305ZM264.755 139.665C260.843 174.277 231.467 201.173 195.81 201.173C157.488 201.173 126.422 170.108 126.422 131.786C126.422 96.1283 153.319 66.7524 187.931 62.841C187.932 62.8404 187.933 62.8405 187.935 62.8405C188.026 62.8303 188.118 62.8202 188.209 62.8101C190.705 62.5378 193.241 62.3984 195.81 62.3984C201.037 62.3984 201.658 70.7436 197.648 74.0969C197.019 74.6235 196.406 75.1691 195.81 75.7332C195.318 76.1985 194.839 76.6762 194.372 77.1659C194.333 77.207 194.294 77.2481 194.255 77.2886C187.538 84.3924 183.419 93.9784 183.419 104.527C183.419 126.425 201.171 144.177 223.069 144.177C233.617 144.177 243.203 140.058 250.307 133.341C250.348 133.301 250.389 133.263 250.43 133.224C250.92 132.757 251.397 132.277 251.863 131.786C252.427 131.19 252.972 130.577 253.499 129.948C256.852 125.938 265.197 126.559 265.197 131.786C265.197 134.355 265.058 136.891 264.786 139.387C264.776 139.478 264.765 139.569 264.755 139.661C264.755 139.662 264.755 139.664 264.755 139.665Z" fill="white"/>
<path d="M141.291 131.786C141.291 161.896 165.7 186.305 195.81 186.305C217.922 186.305 236.959 173.141 245.512 154.222C238.669 157.318 231.069 159.045 223.069 159.045C192.959 159.045 168.55 134.636 168.55 104.527C168.55 96.5269 170.277 88.9269 173.373 82.0834C154.455 90.6365 141.291 109.674 141.291 131.786Z" fill="white"/>
<path d="M232.06 71.4573C233.212 68.3454 237.613 68.3454 238.764 71.4573L242.887 82.5976C243.249 83.5757 244.02 84.3471 244.998 84.7093L256.139 88.8316C259.251 89.9831 259.251 94.3841 256.139 95.5356L244.998 99.6579C244.02 100.02 243.249 100.792 242.887 101.77L238.764 112.91C237.613 116.022 233.212 116.022 232.06 112.91L227.938 101.77C227.576 100.792 226.804 100.02 225.826 99.6579L214.686 95.5356C211.574 94.3841 211.574 89.9831 214.686 88.8316L225.826 84.7093C226.804 84.3471 227.576 83.5757 227.938 82.5976L232.06 71.4573Z" fill="white"/>
</svg>
